<svg width="188" height="112" viewBox="0 0 188 112" fill="none" xmlns="http://www.w3.org/2000/svg">
<line x1="11.5" y1="95.5" x2="169.5" y2="95.5" stroke="black" stroke-width="3" stroke-linecap="round"/>
<rect x="65" y="93" width="8" height="8" fill="#EFF5F5"/>
<path d="M4.92188 80.2227C4.92188 76.5312 4.94466 72.9082 4.99023 69.3535C5.03581 65.7988 5.01302 62.2669 4.92188 58.7578C4.83073 55.2487 4.64844 51.7396 4.375 48.2305C4.10156 44.6758 3.69141 41.0755 3.14453 37.4297C3.14453 37.3385 3.07617 37.1562 2.93945 36.8828C2.84831 36.6094 2.75716 36.3359 2.66602 36.0625C2.57487 35.7435 2.48372 35.4701 2.39258 35.2422C2.30143 35.0143 2.25586 34.8548 2.25586 34.7637C2.25586 34.5358 2.32422 34.2624 2.46094 33.9434C2.64323 33.6243 2.84831 33.3281 3.07617 33.0547C3.34961 32.7357 3.64583 32.485 3.96484 32.3027C4.28385 32.1204 4.60286 32.0521 4.92188 32.0977C5.46875 32.2344 5.90169 32.5762 6.2207 33.123C6.58529 33.6699 6.85872 34.2852 7.04102 34.9688C7.22331 35.6068 7.33724 36.2448 7.38281 36.8828C7.47396 37.5208 7.51953 37.9766 7.51953 38.25C8.88672 37.5208 10.4134 36.7461 12.0996 35.9258C13.8314 35.0599 15.5859 34.2852 17.3633 33.6016C19.1862 32.8724 20.9863 32.2799 22.7637 31.8242C24.5866 31.3229 26.2956 31.0723 27.8906 31.0723C27.8906 31.4824 27.7995 31.847 27.6172 32.166C27.4805 32.485 27.1842 32.7585 26.7285 32.9863L7.51953 42.625V45.291C7.5651 45.7923 7.61068 46.6582 7.65625 47.8887C7.7474 49.1191 7.83854 50.4408 7.92969 51.8535C8.02083 53.2207 8.08919 54.5423 8.13477 55.8184C8.22591 57.0488 8.29427 57.8919 8.33984 58.3477L22.4219 50.4863L22.7637 50.0762C22.9915 49.8027 23.2878 49.5521 23.6523 49.3242C24.0169 49.0964 24.3815 48.9824 24.7461 48.9824C25.1562 48.9368 25.5436 49.1647 25.9082 49.666C25.9082 50.4863 25.498 51.2839 24.6777 52.0586C23.8574 52.8333 22.832 53.6081 21.6016 54.3828C20.3711 55.1576 19.0267 55.9095 17.5684 56.6387C16.1556 57.3678 14.834 58.0742 13.6035 58.7578C12.373 59.4414 11.3477 60.125 10.5273 60.8086C9.70703 61.4922 9.29688 62.1302 9.29688 62.7227V75.916C9.88932 76.1439 10.7096 76.0527 11.7578 75.6426C12.8516 75.1868 14.0592 74.5716 15.3809 73.7969C16.7025 73.0221 18.0697 72.1335 19.4824 71.1309C20.8952 70.0827 22.2624 69.1029 23.584 68.1914C24.9512 67.2799 26.2044 66.4596 27.3438 65.7305C28.5286 65.0013 29.5085 64.5684 30.2832 64.4316C30.7389 64.4316 31.1491 64.5228 31.5137 64.7051C31.8783 64.8874 32.0605 65.252 32.0605 65.7988C32.0605 66.3457 31.7415 66.7786 31.1035 67.0977C29.5085 68.0547 27.6628 69.2624 25.5664 70.7207C23.5156 72.1335 21.4193 73.569 19.2773 75.0273C17.1354 76.4401 15.0163 77.7389 12.9199 78.9238C10.8691 80.0632 9.0918 80.8151 7.58789 81.1797C6.99544 81.1797 6.51693 81.1341 6.15234 81.043C5.78776 80.9518 5.3776 80.6784 4.92188 80.2227ZM44.9805 86.2383C44.3424 86.8763 43.7272 87.1725 43.1348 87.127C42.5879 87.0814 42.1322 86.8535 41.7676 86.4434C41.4486 86.0332 41.2207 85.4863 41.084 84.8027C40.9928 84.1191 41.1296 83.4355 41.4941 82.752L45.8691 64.3633C45.0944 63.4518 44.0918 62.4492 42.8613 61.3555C41.6764 60.2617 40.4915 59.1452 39.3066 58.0059C38.1673 56.8665 37.1191 55.7272 36.1621 54.5879C35.2051 53.403 34.6126 52.2865 34.3848 51.2383C34.3848 50.0534 35 49.4609 36.2305 49.4609C37.0052 49.3242 37.6204 49.3926 38.0762 49.666C38.5775 49.9395 39.0104 50.3496 39.375 50.8965C39.7396 51.3978 40.1042 52.0358 40.4688 52.8105C40.8789 53.5853 41.3574 54.3828 41.9043 55.2031C42.4967 56.0234 43.2259 56.8665 44.0918 57.7324C45.0033 58.5527 46.1654 59.3047 47.5781 59.9883C47.8516 59.2135 48.1022 57.9831 48.3301 56.2969C48.5579 54.5651 48.7402 52.7422 48.877 50.8281C49.0592 48.8685 49.196 46.9316 49.2871 45.0176C49.3783 43.1035 49.4238 41.5312 49.4238 40.3008C49.5605 40.1185 49.834 39.9818 50.2441 39.8906C50.6999 39.7539 51.1784 39.7083 51.6797 39.7539C52.181 39.7539 52.6367 39.8451 53.0469 40.0273C53.457 40.1641 53.7077 40.3919 53.7988 40.7109C54.0267 42.6706 53.9811 44.6074 53.6621 46.5215C53.3887 48.39 53.0241 50.2812 52.5684 52.1953C52.1582 54.0638 51.7708 55.9323 51.4062 57.8008C51.0417 59.6693 50.9505 61.5605 51.1328 63.4746L63.3008 75.7109C63.3464 75.7565 63.4147 75.9388 63.5059 76.2578C63.597 76.5768 63.6426 76.8047 63.6426 76.9414C63.6426 77.2148 63.6198 77.4883 63.5742 77.7617C63.5286 78.0352 63.4147 78.3086 63.2324 78.582C63.0957 78.8099 62.8906 78.9922 62.6172 79.1289C62.3893 79.2656 62.0703 79.3112 61.6602 79.2656C61.0677 78.6276 60.3158 77.8529 59.4043 76.9414C58.5384 75.9844 57.5814 75.0046 56.5332 74.002C55.485 72.9538 54.4141 71.9512 53.3203 70.9941C52.2266 70.0371 51.1784 69.2852 50.1758 68.7383H49.834L49.7656 68.6699C49.5378 68.6699 49.3327 68.8066 49.1504 69.0801C48.9681 69.3079 48.7174 70.0143 48.3984 71.1992C48.125 72.3385 47.7148 74.0931 47.168 76.4629C46.6667 78.7871 45.9375 82.0456 44.9805 86.2383ZM66.9922 99.9785C67.4935 95.1934 67.7669 90.6361 67.8125 86.3066C67.9036 82.0228 67.8809 77.7845 67.7441 73.5918C67.653 69.3991 67.4935 65.1608 67.2656 60.877C67.0378 56.5931 66.901 52.0586 66.8555 47.2734C66.9922 46.6354 67.1517 46.1569 67.334 45.8379C67.5618 45.4733 68.1315 45.3822 69.043 45.5645C70 45.7923 70.5697 46.3392 70.752 47.2051C70.9342 48.0254 70.9798 48.9596 70.8887 50.0078C70.7975 51.056 70.6608 52.1042 70.4785 53.1523C70.2962 54.2005 70.2962 55.0436 70.4785 55.6816C71.9368 54.6335 73.4863 53.5397 75.127 52.4004C76.7676 51.2611 78.4766 50.2585 80.2539 49.3926C82.0312 48.4811 83.877 47.8203 85.791 47.4102C87.7051 46.9544 89.6191 46.9316 91.5332 47.3418C93.903 47.8887 95.5436 48.709 96.4551 49.8027C97.4121 50.8509 97.7767 52.0814 97.5488 53.4941C97.3665 54.8613 96.7285 56.388 95.6348 58.0742C94.541 59.7148 93.1966 61.3783 91.6016 63.0645C90.0065 64.7507 88.2292 66.4141 86.2695 68.0547C84.3099 69.6953 82.3958 71.222 80.5273 72.6348C78.6589 74.002 76.9043 75.2096 75.2637 76.2578C73.6686 77.306 72.3926 78.0807 71.4355 78.582C71.39 79.1289 71.3216 79.9948 71.2305 81.1797C71.1849 82.319 71.1165 83.6178 71.0254 85.0762C70.9798 86.5345 70.9115 88.0612 70.8203 89.6562C70.7747 91.2513 70.7064 92.778 70.6152 94.2363C70.5697 95.6947 70.5013 96.9935 70.4102 98.1328C70.3646 99.2721 70.3418 100.115 70.3418 100.662C70.2507 100.708 70.0911 100.753 69.8633 100.799C69.6354 100.844 69.362 100.867 69.043 100.867C68.724 100.913 68.4277 100.936 68.1543 100.936C67.8809 100.981 67.6986 100.981 67.6074 100.936C67.4707 100.936 67.334 100.799 67.1973 100.525C67.0605 100.298 66.9922 100.115 66.9922 99.9785ZM70.8203 62.5176C70.6836 63.1556 70.638 63.9531 70.6836 64.9102C70.7747 65.8216 70.8659 66.8014 70.957 67.8496C71.0938 68.8522 71.2305 69.832 71.3672 70.7891C71.5039 71.7461 71.5951 72.5664 71.6406 73.25C73.3724 71.9284 75.3776 70.584 77.6562 69.2168C79.9805 67.8496 82.2135 66.3685 84.3555 64.7734C86.543 63.1784 88.4798 61.401 90.166 59.4414C91.8522 57.4818 92.9688 55.2715 93.5156 52.8105C93.6979 51.8535 93.6068 51.2155 93.2422 50.8965C92.9232 50.5319 92.3535 50.2812 91.5332 50.1445C89.8014 49.7799 87.819 49.9167 85.5859 50.5547C83.3529 51.1471 81.1882 52.0358 79.0918 53.2207C77.041 54.4056 75.2409 55.8184 73.6914 57.459C72.1419 59.0996 71.1849 60.7858 70.8203 62.5176ZM101.992 78.5137C102.311 76.4173 102.516 73.7969 102.607 70.6523C102.744 67.5078 102.79 64.1582 102.744 60.6035C102.744 57.0488 102.676 53.3802 102.539 49.5977C102.402 45.8151 102.22 42.2376 101.992 38.8652C101.764 35.4473 101.491 32.3939 101.172 29.7051C100.898 27.0163 100.602 24.8971 100.283 23.3477C100.693 23.0742 101.035 22.8691 101.309 22.7324C101.628 22.5501 101.992 22.459 102.402 22.459C102.721 22.459 102.995 22.5273 103.223 22.6641C103.451 22.7552 103.633 22.9831 103.77 23.3477C104.681 32.2799 105.296 41.2806 105.615 50.3496C105.98 59.4186 106.253 68.4421 106.436 77.4199C106.436 77.8301 106.436 78.3997 106.436 79.1289C106.436 79.8125 106.413 80.1771 106.367 80.2227C105.729 80.5417 105.16 80.7012 104.658 80.7012C104.157 80.6556 103.701 80.5189 103.291 80.291C102.881 80.0176 102.562 79.7214 102.334 79.4023C102.106 79.0833 101.992 78.7871 101.992 78.5137ZM110.127 72.6348C109.808 70.5384 109.648 68.5104 109.648 66.5508C109.648 64.5456 109.762 62.5176 109.99 60.4668C110.264 58.416 110.628 56.2969 111.084 54.1094C111.585 51.8763 112.155 49.4837 112.793 46.9316C112.793 46.4303 112.93 45.9746 113.203 45.5645C113.477 45.1087 113.841 44.7441 114.297 44.4707C114.753 44.1517 115.231 43.901 115.732 43.7188C116.234 43.5365 116.712 43.4453 117.168 43.4453C118.171 43.4453 119.082 43.7643 119.902 44.4023C120.723 45.0404 121.452 45.8151 122.09 46.7266C122.773 47.638 123.343 48.6178 123.799 49.666C124.3 50.6686 124.71 51.5345 125.029 52.2637C125.394 53.8587 125.645 55.6816 125.781 57.7324C125.964 59.7376 125.986 61.7884 125.85 63.8848C125.713 65.9811 125.394 68.0547 124.893 70.1055C124.391 72.1107 123.685 73.9564 122.773 75.6426C121.862 77.3288 120.677 78.7415 119.219 79.8809C117.806 81.0202 116.12 81.7266 114.16 82C113.112 82 112.314 81.6582 111.768 80.9746C111.221 80.2454 110.811 79.3796 110.537 78.377C110.309 77.3288 110.173 76.2806 110.127 75.2324C110.127 74.1842 110.127 73.3184 110.127 72.6348ZM113.613 72.4297C113.613 72.8854 113.613 73.3184 113.613 73.7285C113.659 74.1387 113.704 74.5488 113.75 74.959C113.841 75.3236 113.932 75.7337 114.023 76.1895C114.16 76.5996 114.32 77.0781 114.502 77.625H114.912C116.006 77.625 116.94 77.2604 117.715 76.5312C118.49 75.8021 119.15 74.8678 119.697 73.7285C120.244 72.5436 120.7 71.2448 121.064 69.832C121.429 68.3737 121.702 66.9609 121.885 65.5938C122.113 64.181 122.249 62.8822 122.295 61.6973C122.386 60.4668 122.432 59.487 122.432 58.7578V57.3906C122.432 56.7982 122.409 56.1374 122.363 55.4082C122.318 54.6335 122.227 53.8587 122.09 53.084C121.999 52.2637 121.839 51.5345 121.611 50.8965C121.383 50.2129 121.087 49.666 120.723 49.2559C120.358 48.8457 119.88 48.6406 119.287 48.6406C118.285 48.3216 117.419 48.39 116.689 48.8457C116.006 49.3014 115.436 50.0762 114.98 51.1699C114.57 52.2181 114.251 53.5169 114.023 55.0664C113.796 56.6159 113.659 58.3249 113.613 60.1934C113.568 62.0618 113.545 64.0443 113.545 66.1406C113.59 68.237 113.613 70.3333 113.613 72.4297ZM128.857 49.0508V48.5039C128.857 48.0482 129.017 47.7292 129.336 47.5469C129.701 47.3646 130.111 47.2734 130.566 47.2734C130.931 47.2734 131.273 47.319 131.592 47.4102C131.911 47.4557 132.161 47.7064 132.344 48.1621C132.48 48.8457 132.617 49.8027 132.754 51.0332C132.891 52.2181 133.05 53.5397 133.232 54.998C133.415 56.4564 133.597 58.0059 133.779 59.6465C134.007 61.2415 134.212 62.7682 134.395 64.2266C134.622 65.6393 134.85 66.9154 135.078 68.0547C135.306 69.194 135.557 70.0599 135.83 70.6523C135.693 66.2773 135.83 62.4948 136.24 59.3047C136.65 56.069 137.425 53.4486 138.564 51.4434C139.749 49.3926 141.344 47.9798 143.35 47.2051C145.4 46.3848 147.952 46.2025 151.006 46.6582C152.419 46.6582 153.125 47.4102 153.125 48.9141C153.125 49.5065 152.738 49.9167 151.963 50.1445C151.188 50.3268 150.322 50.4635 149.365 50.5547C148.408 50.6003 147.474 50.6686 146.562 50.7598C145.651 50.8509 144.99 51.0788 144.58 51.4434C142.939 52.3548 141.777 53.7676 141.094 55.6816C140.456 57.5957 140 59.8516 139.727 62.4492C139.453 65.0469 139.248 67.8952 139.111 70.9941C139.02 74.0475 138.724 77.1921 138.223 80.4277C138.223 80.8835 138.04 81.2253 137.676 81.4531C137.311 81.681 136.855 81.7949 136.309 81.7949C135.807 81.7949 135.306 81.681 134.805 81.4531C134.349 81.2253 133.984 80.8835 133.711 80.4277L128.857 49.0508ZM158.594 67.2344C158.366 67.2799 158.024 67.3483 157.568 67.4395C157.113 67.5306 156.634 67.5534 156.133 67.5078C155.632 67.4622 155.199 67.3255 154.834 67.0977C154.424 66.8698 154.219 66.4824 154.219 65.9355C154.219 65.6165 154.287 65.3887 154.424 65.252C154.561 65.1152 154.788 64.9102 155.107 64.6367C156.11 63.8164 156.953 62.7682 157.637 61.4922C158.366 60.1706 159.027 58.7806 159.619 57.3223C160.212 55.8184 160.827 54.3372 161.465 52.8789C162.148 51.375 162.923 50.0306 163.789 48.8457C164.655 47.6608 165.726 46.7038 167.002 45.9746C168.278 45.2454 169.85 44.9036 171.719 44.9492C172.493 44.9492 173.359 45.1315 174.316 45.4961C175.273 45.8607 176.162 46.362 176.982 47C177.803 47.5924 178.486 48.3216 179.033 49.1875C179.58 50.0534 179.854 51.0104 179.854 52.0586C180.081 52.4232 179.854 52.9473 179.17 53.6309C178.532 54.3145 177.643 55.0664 176.504 55.8867C175.365 56.6615 174.066 57.4818 172.607 58.3477C171.195 59.168 169.827 59.9427 168.506 60.6719C167.184 61.401 166.022 62.0391 165.02 62.5859C164.017 63.1328 163.356 63.543 163.037 63.8164C162.809 64.2721 162.627 64.7962 162.49 65.3887C162.354 65.9811 162.24 66.5508 162.148 67.0977C162.103 67.599 162.057 68.0775 162.012 68.5332C162.012 68.9434 162.012 69.2624 162.012 69.4902C162.012 70.3561 161.966 71.3132 161.875 72.3613C161.829 73.4095 161.875 74.4121 162.012 75.3691C162.194 76.2806 162.581 77.0553 163.174 77.6934C163.766 78.2858 164.769 78.582 166.182 78.582C167.686 78.582 169.098 78.2174 170.42 77.4883C171.742 76.7135 172.972 75.7793 174.111 74.6855C175.251 73.5918 176.276 72.4069 177.188 71.1309C178.145 69.8548 178.988 68.6699 179.717 67.5762C180.492 66.4368 181.175 65.5026 181.768 64.7734C182.36 64.0443 182.861 63.6797 183.271 63.6797C183.727 63.6797 184.206 63.7708 184.707 63.9531C185.254 64.0898 185.527 64.4544 185.527 65.0469C185.527 65.8672 185.186 66.847 184.502 67.9863C183.864 69.1257 182.998 70.3333 181.904 71.6094C180.856 72.8854 179.626 74.1615 178.213 75.4375C176.846 76.668 175.456 77.7845 174.043 78.7871C172.63 79.7441 171.24 80.5417 169.873 81.1797C168.506 81.7721 167.298 82.0684 166.25 82.0684C164.199 82.0684 162.65 81.5671 161.602 80.5645C160.553 79.5618 159.801 78.3086 159.346 76.8047C158.936 75.3008 158.708 73.7057 158.662 72.0195C158.662 70.2878 158.639 68.6927 158.594 67.2344ZM171.172 48.7773C170.397 48.7773 169.577 49.1647 168.711 49.9395C167.845 50.6686 167.025 51.5801 166.25 52.6738C165.521 53.722 164.906 54.8158 164.404 55.9551C163.949 57.0488 163.721 57.9603 163.721 58.6895C164.404 58.6895 165.384 58.4388 166.66 57.9375C167.982 57.3906 169.281 56.7298 170.557 55.9551C171.833 55.1803 172.949 54.36 173.906 53.4941C174.863 52.6283 175.342 51.8079 175.342 51.0332C175.342 50.623 175.182 50.2812 174.863 50.0078C174.544 49.7344 174.157 49.5065 173.701 49.3242C173.291 49.1419 172.858 49.0052 172.402 48.9141C171.947 48.8229 171.536 48.7773 171.172 48.7773Z" fill="black"/>
<line x1="11.5" y1="105.5" x2="169.5" y2="105.5" stroke="black" stroke-width="3" stroke-linecap="round"/>
</svg>
