<svg width="185" height="90" viewBox="0 0 185 90" fill="none" xmlns="http://www.w3.org/2000/svg">
<path d="M24.4534 41.5254C25.1153 43.2351 26.0666 44.1176 27.3076 44.1727V45C26.2045 44.9173 24.7292 44.8759 22.8816 44.8759C20.5101 44.8759 18.7452 44.9173 17.587 45V44.1727C18.6349 44.1176 19.3794 43.9935 19.8207 43.8004C20.2894 43.5798 20.5238 43.1938 20.5238 42.6422C20.5238 42.1735 20.3584 41.5254 20.0275 40.6981L17.5043 33.9144H7.49416L5.79823 38.299C5.24671 39.7881 4.97095 40.9187 4.97095 41.6909C4.97095 42.5457 5.2605 43.1662 5.8396 43.5523C6.44627 43.9383 7.35628 44.1451 8.56963 44.1727V45C6.99779 44.9173 5.41217 44.8759 3.81276 44.8759C2.57183 44.8759 1.53773 44.9173 0.710451 45V44.1727C2.08925 43.8418 3.17851 42.6422 3.97821 40.574L13.6988 15.5074H14.3606L24.4534 41.5254ZM17.1734 33.0871L12.5406 20.7193L7.82507 33.0871H17.1734ZM53.1966 43.2627C52.6727 44.0073 52.066 44.5864 51.3766 45C50.7148 45.3861 49.9151 45.5791 48.9775 45.5791C46.6611 45.5791 45.2409 44.5312 44.717 42.4354L43.4347 37.2649C43.0486 35.7207 42.4695 34.6866 41.6974 34.1626C40.9528 33.6387 39.836 33.3767 38.3469 33.3767H35.9892V40.6154C35.9892 41.6633 36.0719 42.4216 36.2373 42.8904C36.4028 43.3592 36.7061 43.6763 37.1474 43.8418C37.6161 44.0073 38.3469 44.1176 39.3396 44.1727V45C38.0711 44.9173 36.3201 44.8759 34.0864 44.8759C31.7149 44.8759 29.95 44.9173 28.7918 45V44.1727C29.7845 44.1176 30.5015 44.0073 30.9427 43.8418C31.4115 43.6763 31.7287 43.3592 31.8941 42.8904C32.0596 42.4216 32.1423 41.6633 32.1423 40.6154V24.2352C32.1423 23.1873 32.0596 22.429 31.8941 21.9602C31.7287 21.4914 31.4115 21.1743 30.9427 21.0088C30.5015 20.8434 29.7845 20.7331 28.7918 20.6779V19.8506C29.95 19.9334 31.6321 19.9747 33.8382 19.9747L38.0574 19.9334C38.5262 19.9058 39.0639 19.892 39.6706 19.892C42.7591 19.892 45.1168 20.4711 46.7438 21.6293C48.3984 22.7875 49.2257 24.2904 49.2257 26.138C49.2257 27.7374 48.5776 29.1989 47.2815 30.5226C46.0131 31.8462 43.9173 32.6873 40.9942 33.0458C41.5457 33.1009 42.0145 33.1561 42.4006 33.2112C43.8621 33.4318 45.0203 33.8731 45.8752 34.5349C46.73 35.1967 47.3367 36.2584 47.6952 37.7199L48.6052 41.4841C48.8258 42.4492 49.0602 43.1386 49.3084 43.5523C49.5842 43.9383 49.9289 44.1314 50.3425 44.1314C51.0319 44.1314 51.7902 43.6626 52.6175 42.725L53.1966 43.2627ZM38.6365 20.6779C37.8919 20.6779 37.3266 20.7744 36.9405 20.9675C36.582 21.1605 36.3339 21.5052 36.196 22.0016C36.0581 22.4979 35.9892 23.2425 35.9892 24.2352V32.5494H38.7606C41.1872 32.5494 42.8418 32.0393 43.7242 31.0189C44.6342 29.9711 45.0893 28.4957 45.0893 26.593C45.0893 24.6075 44.5791 23.1322 43.5588 22.167C42.566 21.1743 40.9253 20.6779 38.6365 20.6779ZM72.4445 20.0161C74.0163 20.0161 75.078 19.9609 75.6295 19.8506V20.7193C75.1607 20.8296 74.7333 21.0916 74.3472 21.5052C73.9612 21.9188 73.5062 22.5945 72.9822 23.532L66.4881 35.1554V40.6154C66.4881 41.6633 66.5708 42.4216 66.7362 42.8904C66.9017 43.3592 67.205 43.6763 67.6462 43.8418C68.115 44.0073 68.8458 44.1176 69.8385 44.1727V45C68.57 44.9173 66.819 44.8759 64.5853 44.8759C62.2138 44.8759 60.4489 44.9173 59.2907 45V44.1727C60.2834 44.1176 61.0004 44.0073 61.4416 43.8418C61.9104 43.6763 62.2276 43.3592 62.393 42.8904C62.5585 42.4216 62.6412 41.6633 62.6412 40.6154V36.3135L54.6579 23.0357C54.134 22.1532 53.6928 21.5741 53.3343 21.2984C53.0034 20.995 52.6449 20.802 52.2588 20.7193V19.8506C54.0237 19.9609 55.237 20.0161 55.8988 20.0161C57.8016 20.0161 59.7319 19.9609 61.6898 19.8506V20.7193C60.7522 20.7193 60.0353 20.802 59.5389 20.9675C59.0425 21.1054 58.7943 21.4363 58.7943 21.9602C58.7943 22.429 59.0287 23.077 59.4975 23.9043L65.7435 34.3281L70.8726 25.3107C71.4793 24.2077 71.7827 23.3252 71.7827 22.6634C71.7827 21.5052 70.8313 20.8572 68.9285 20.7193V19.8506C69.9488 19.9609 71.1208 20.0161 72.4445 20.0161ZM95.6122 41.5254C96.3568 43.2351 97.3082 44.1176 98.4664 44.1727V45C97.3633 44.9173 95.888 44.8759 94.0404 44.8759C91.6689 44.8759 89.904 44.9173 88.7458 45V44.1727C89.7661 44.1176 90.5107 43.9797 90.9795 43.7591C91.4758 43.5385 91.724 43.1662 91.724 42.6422C91.724 42.201 91.531 41.553 91.1449 40.6981L89.0353 35.9826H78.9839L77.5775 39.0849C77.1087 40.1604 76.8743 41.0428 76.8743 41.7322C76.8743 42.4492 77.1225 43.0145 77.6189 43.4282C78.1428 43.8142 78.9701 44.0624 80.1007 44.1727V45C79.2734 44.9173 78.0187 44.8759 76.3366 44.8759C74.6544 44.8759 73.4549 44.9173 72.7379 45V44.1727C73.4825 43.9797 74.1167 43.566 74.6406 42.9318C75.1646 42.27 75.661 41.4013 76.1298 40.3259L85.2712 19.6438H85.933L95.6122 41.5254ZM88.7044 35.1554L84.0303 24.6489L79.3148 35.1554H88.7044ZM125.238 20.6779C124.272 20.7331 123.555 20.8847 123.087 21.1329C122.618 21.3535 122.301 21.7396 122.135 22.2911C121.97 22.8151 121.887 23.601 121.887 24.6489V45.2068H120.936L104.39 22.2911V40.2018C104.39 41.2772 104.473 42.0769 104.638 42.6009C104.831 43.1248 105.19 43.5109 105.714 43.7591C106.238 43.9797 107.051 44.1176 108.154 44.1727V45C107.162 44.9173 105.755 44.8759 103.935 44.8759C102.281 44.8759 100.998 44.9173 100.088 45V44.1727C101.053 44.1176 101.77 43.9797 102.239 43.7591C102.708 43.5109 103.025 43.1248 103.191 42.6009C103.356 42.0494 103.439 41.2497 103.439 40.2018V24.2352C103.439 23.1873 103.356 22.429 103.191 21.9602C103.025 21.4914 102.708 21.1743 102.239 21.0088C101.798 20.8434 101.081 20.7331 100.088 20.6779V19.8506C100.998 19.9334 102.281 19.9747 103.935 19.9747C105.424 19.9747 106.693 19.9334 107.741 19.8506L120.936 38.2163V24.6489C120.936 23.5734 120.839 22.7737 120.646 22.2498C120.481 21.7258 120.136 21.3535 119.612 21.1329C119.088 20.8847 118.275 20.7331 117.172 20.6779V19.8506C118.164 19.9334 119.571 19.9747 121.391 19.9747C123.045 19.9747 124.328 19.9334 125.238 19.8506V20.6779Z" fill="black"/>
<path d="M70.7502 51.5415L54.246 79.0486H62.3533C64.063 79.0486 65.3591 78.8142 66.2416 78.3454C67.1516 77.8491 67.8134 77.0632 68.227 75.9877C68.6407 74.9122 68.944 73.3542 69.137 71.3135H70.0884C70.0057 72.1684 69.9643 73.299 69.9643 74.7054C69.9643 76.2772 70.0608 78.0421 70.2539 80C68.2132 79.9173 64.78 79.8759 59.9542 79.8759C55.2387 79.8759 51.8331 79.9173 49.7373 80V79.1727L66.3656 51.6656H58.2997C56.5899 51.6656 55.2801 51.9138 54.3701 52.4102C53.4876 52.879 52.8396 53.6511 52.426 54.7266C52.0123 55.802 51.709 57.3601 51.5159 59.4007H50.5646C50.6473 58.5183 50.6887 57.3876 50.6887 56.0088C50.6887 54.437 50.5921 52.6721 50.3991 50.7142C52.4397 50.797 55.873 50.8383 60.6988 50.8383C65.3867 50.8383 68.7372 50.797 70.7502 50.7142V51.5415ZM95.3102 76.5254C96.0547 78.2351 97.0061 79.1176 98.1643 79.1727V80C97.0612 79.9173 95.5859 79.8759 93.7383 79.8759C91.3668 79.8759 89.6019 79.9173 88.4437 80V79.1727C89.464 79.1176 90.2086 78.9797 90.6774 78.7591C91.1738 78.5385 91.4219 78.1662 91.4219 77.6422C91.4219 77.201 91.2289 76.553 90.8428 75.6981L88.7333 70.9826H78.6818L77.2754 74.0849C76.8066 75.1604 76.5722 76.0428 76.5722 76.7322C76.5722 77.4492 76.8204 78.0145 77.3168 78.4282C77.8407 78.8142 78.668 79.0624 79.7986 79.1727V80C78.9713 79.9173 77.7166 79.8759 76.0345 79.8759C74.3524 79.8759 73.1528 79.9173 72.4358 80V79.1727C73.1804 78.9797 73.8146 78.566 74.3386 77.9318C74.8625 77.27 75.3589 76.4013 75.8277 75.3259L84.9691 54.6438H85.631L95.3102 76.5254ZM88.4024 70.1554L83.7282 59.6489L79.0127 70.1554H88.4024ZM117.085 54.9747C118.243 54.9747 119.167 54.9334 119.856 54.8506V55.6779C119.084 55.871 118.464 56.257 117.995 56.8361C117.526 57.3876 116.988 58.3528 116.382 59.7316L107.323 80.2068H106.661L96.9818 58.3252C96.2373 56.6155 95.2859 55.7331 94.1277 55.6779V54.8506C95.2583 54.9334 96.7337 54.9747 98.5537 54.9747C100.925 54.9747 102.69 54.9334 103.848 54.8506V55.6779C102.828 55.7331 102.07 55.871 101.573 56.0916C101.104 56.3122 100.87 56.6845 100.87 57.2084C100.87 57.6496 101.063 58.2976 101.449 59.1525L108.564 75.2018L114.727 61.4689C115.416 59.9798 115.761 58.8078 115.761 57.9529C115.761 57.1808 115.485 56.6293 114.934 56.2984C114.41 55.9399 113.596 55.7331 112.493 55.6779V54.8506C113.321 54.9334 114.851 54.9747 117.085 54.9747ZM141.829 75.119C141.829 76.553 141.926 78.18 142.119 80C140.326 79.9173 137.307 79.8759 133.06 79.8759C127.958 79.8759 124.098 79.9173 121.478 80V79.1727C122.471 79.1176 123.188 79.0073 123.629 78.8418C124.098 78.6763 124.415 78.3592 124.58 77.8904C124.746 77.4216 124.829 76.6633 124.829 75.6154V59.2352C124.829 58.1873 124.746 57.429 124.58 56.9602C124.415 56.4914 124.098 56.1743 123.629 56.0088C123.188 55.8434 122.471 55.7331 121.478 55.6779V54.8506C124.098 54.9334 127.958 54.9747 133.06 54.9747C136.921 54.9747 139.665 54.9334 141.291 54.8506C141.098 56.5052 141.002 57.9943 141.002 59.318C141.002 60.3934 141.043 61.2483 141.126 61.8825H140.175C139.982 59.6213 139.499 58.0495 138.727 57.167C137.982 56.257 136.755 55.802 135.046 55.802H132.026C131.033 55.802 130.302 55.8847 129.834 56.0502C129.392 56.1881 129.089 56.4914 128.924 56.9602C128.758 57.429 128.675 58.1873 128.675 59.2352V66.929H132.109C132.991 66.929 133.667 66.7083 134.136 66.2671C134.604 65.7983 134.921 65.302 135.087 64.778C135.252 64.2265 135.404 63.5371 135.542 62.7098H136.493C136.411 63.6474 136.369 64.6677 136.369 65.7708V67.3426C136.369 68.4181 136.452 69.9623 136.617 71.9754H135.666C135.501 70.6517 135.183 69.6176 134.715 68.8731C134.246 68.1285 133.377 67.7562 132.109 67.7562H128.675V75.6154C128.675 76.6633 128.758 77.4216 128.924 77.8904C129.089 78.3592 129.392 78.6763 129.834 78.8418C130.302 78.9797 131.033 79.0486 132.026 79.0486H135.046C136.424 79.0486 137.514 78.828 138.313 78.3868C139.113 77.9456 139.72 77.2424 140.133 76.2772C140.547 75.2845 140.836 73.9057 141.002 72.1408H141.953C141.871 72.8854 141.829 73.8781 141.829 75.119ZM170.483 78.2627C169.959 79.0073 169.353 79.5864 168.663 80C168.001 80.3861 167.202 80.5791 166.264 80.5791C163.948 80.5791 162.528 79.5312 162.004 77.4354L160.721 72.2649C160.335 70.7207 159.756 69.6866 158.984 69.1626C158.239 68.6387 157.123 68.3767 155.634 68.3767H153.276V75.6154C153.276 76.6633 153.358 77.4216 153.524 77.8904C153.689 78.3592 153.993 78.6763 154.434 78.8418C154.903 79.0073 155.634 79.1176 156.626 79.1727V80C155.358 79.9173 153.607 79.8759 151.373 79.8759C149.001 79.8759 147.237 79.9173 146.078 80V79.1727C147.071 79.1176 147.788 79.0073 148.229 78.8418C148.698 78.6763 149.015 78.3592 149.181 77.8904C149.346 77.4216 149.429 76.6633 149.429 75.6154V59.2352C149.429 58.1873 149.346 57.429 149.181 56.9602C149.015 56.4914 148.698 56.1743 148.229 56.0088C147.788 55.8434 147.071 55.7331 146.078 55.6779V54.8506C147.237 54.9334 148.919 54.9747 151.125 54.9747L155.344 54.9334C155.813 54.9058 156.35 54.892 156.957 54.892C160.046 54.892 162.403 55.4711 164.03 56.6293C165.685 57.7875 166.512 59.2904 166.512 61.138C166.512 62.7374 165.864 64.1989 164.568 65.5226C163.3 66.8462 161.204 67.6873 158.281 68.0458C158.832 68.1009 159.301 68.1561 159.687 68.2112C161.149 68.4318 162.307 68.8731 163.162 69.5349C164.017 70.1967 164.623 71.2584 164.982 72.7199L165.892 76.4841C166.112 77.4492 166.347 78.1386 166.595 78.5523C166.871 78.9383 167.215 79.1314 167.629 79.1314C168.318 79.1314 169.077 78.6626 169.904 77.725L170.483 78.2627ZM155.923 55.6779C155.179 55.6779 154.613 55.7744 154.227 55.9675C153.869 56.1605 153.62 56.5052 153.483 57.0016C153.345 57.4979 153.276 58.2425 153.276 59.2352V67.5494H156.047C158.474 67.5494 160.128 67.0393 161.011 66.0189C161.921 64.9711 162.376 63.4957 162.376 61.593C162.376 59.6075 161.866 58.1322 160.845 57.167C159.853 56.1743 158.212 55.6779 155.923 55.6779ZM182.438 55.6779C181.446 55.7331 180.715 55.8434 180.246 56.0088C179.805 56.1743 179.502 56.4914 179.336 56.9602C179.171 57.429 179.088 58.1873 179.088 59.2352V75.6154C179.088 76.6633 179.171 77.4216 179.336 77.8904C179.502 78.3592 179.805 78.6763 180.246 78.8418C180.715 79.0073 181.446 79.1176 182.438 79.1727V80C181.17 79.9173 179.419 79.8759 177.185 79.8759C174.814 79.8759 173.049 79.9173 171.891 80V79.1727C172.883 79.1176 173.6 79.0073 174.041 78.8418C174.51 78.6763 174.827 78.3592 174.993 77.8904C175.158 77.4216 175.241 76.6633 175.241 75.6154V59.2352C175.241 58.1873 175.158 57.429 174.993 56.9602C174.827 56.4914 174.51 56.1743 174.041 56.0088C173.6 55.8434 172.883 55.7331 171.891 55.6779V54.8506C173.049 54.9334 174.814 54.9747 177.185 54.9747C179.391 54.9747 181.142 54.9334 182.438 54.8506V55.6779Z" fill="black"/>
</svg>
